# xmcd
#
# Track frame offsets:
# 150
# 17155
# 29843
# 45296
# 59721
# 75174
# 91530
# 105438
# 115587
# 126920
# 138894
# 154420
# 169735
# 189653
# 206728
# 224238
#
# Disc length: 3145 seconds
#
#
# Revision: 0
# Processed by: cddbd v1.5.1PL2 Copyright (c) Steve Scherf et al.
# Submitted via: FreeRIP 2.52 
#
DISCID=db0c4710
DTITLE=The Others - Hit The Wall
DYEAR=2004
DGENRE=R&B
TTITLE0=Hit the Wall
TTITLE1=Keep your Dreams
TTITLE2=The Fin
TTITLE3=Real Flash Coves
TTITLE4=Might Need Them One Day
TTITLE5=Monday Morning In Glenrowan
TTITLE6=Witch Has Got Me
TTITLE7=Patche's Piggie
TTITLE8=Maybe Later
TTITLE9=Dance Fast
TTITLE10=In Two Minds
TTITLE11=Heart Of Steel
TTITLE12=Going Nowhere
TTITLE13=Not Quite Right
TTITLE14=Song For Sammy
TTITLE15=Amphetamine
EXTD=http:\\\\www.theothers,com.au
EXTT0=
EXTT1=
EXTT2=
EXTT3=
EXTT4=
EXTT5=
EXTT6=
EXTT7=
EXTT8=
EXTT9=
EXTT10=
EXTT11=
EXTT12=
EXTT13=
EXTT14=
EXTT15=
PLAYORDER=
